<svg t="1591350638906"  viewBox="0 0 1024 1024" version="1.1" xmlns="http://www.w3.org/2000/svg" p-id="27813" width="10" height="10"  style="display: inline"><path d="M736.946238 928.866293H246.668982c-43.317575 0-80.755232-5.869684-111.272269-17.445324-30.91408-11.726066-56.671721-27.753087-76.555583-47.635927-20.088524-20.090571-34.731012-43.647079-43.521213-70.018704-8.473999-25.419949-12.769838-52.570309-12.769838-80.696903 0-28.757974 5.669116-56.32175 16.847713-81.925894 11.04659-25.300222 26.243711-47.905056 45.169759-67.187215 19.017122-19.376303 41.549302-34.82925 66.969251-45.928029 25.605168-11.17962 53.497425-16.848737 82.903152-16.848737 41.588187 0 79.659271 10.957563 113.156176 32.568767 16.228613 10.469446 30.630624 22.576181 43.125193 36.231179 3.105734-15.261589 7.444553-30.498618 13.002128-45.62513 12.695137-34.559097 33.183773-66.134233 60.896952-93.847412 27.629267-27.630291 63.863517-50.215682 107.698885-67.128886 43.512003-16.787338 97.086176-25.299199 159.236677-25.299199 47.696302 0 89.25993 6.14393 123.531478 18.261922 34.490535 12.192693 63.806211 28.589129 87.128383 48.731888 23.38357 20.193925 42.095747 43.782156 55.615668 70.109777 13.068643 25.449625 22.843264 51.652404 29.055756 77.881788 6.088672 25.702382 10.036587 51.129494 11.734253 75.571163 1.65264 23.796986 2.490727 45.302789 2.490727 63.923892 0 30.209022-6.715959 60.043514-19.958564 88.676645-13.204743 28.55229-32.511461 54.019311-57.379849 75.691913-24.514323 21.361517-54.521754 38.871309-89.191368 52.045353-34.738176 13.20065-74.315566 19.893072-117.636211 19.893073zM214.43893 542.112832c-23.733541 0-46.115294 4.517897-66.524112 13.428847-20.594037 8.991792-38.806841 21.468964-54.134945 37.086663-15.421224 15.711843-27.825742 34.180474-36.869722 54.895261-8.91095 20.406772-13.428847 42.460044-13.428847 65.546855 0 23.719214 3.589758 46.514383 10.670013 67.753104 6.763031 20.289092 18.078751 38.464033 33.634029 54.019311 15.760962 15.759939 36.664038 28.64848 62.127989 38.307467 25.863041 9.810437 58.415434 14.784728 96.755647 14.784728h490.277256c38.334073 0 73.019037-5.79396 103.09196-17.22122 30.132274-11.449773 55.986105-26.470885 76.840063-44.642756 20.4958-17.86181 36.348859-38.727023 47.121203-62.016449 10.734482-23.208585 16.177448-47.26242 16.177448-71.493288 0-17.677615-0.804319-38.23072-2.39249-61.087286-1.543146-22.225187-5.15337-45.430702-10.730389-68.972885-5.450129-23.019273-14.075577-46.105061-25.63689-68.617797-11.106965-21.629623-26.569122-41.086767-45.956681-57.82908-19.448958-16.797571-44.352137-30.632671-74.017784-41.119513-29.879518-10.564613-66.850547-15.921621-109.887736-15.921621-57.093323 0-105.711624 7.588839-144.503115 22.555715-38.471197 14.843056-69.925582 34.31862-93.489254 57.883315-23.485901 23.485901-40.784892 50.071396-51.41909 79.018682-10.832719 29.485545-16.324804 59.313897-16.324804 88.655156a20.466124 20.466124 0 0 1-38.772049 9.15245c-13.891382-27.782763-34.630728-50.706869-61.642942-68.133773-27.15036-17.516956-56.905034-26.031886-90.964758-26.031886z" p-id="27814" fill="{{color}}"></path><path d="M275.518031 465.671858c-35.294854 0-69.230758-8.18338-100.865246-24.321941-26.51898-13.440104-49.698912-31.770588-68.847017-54.456263l-31.388895-37.18797 48.532343 3.576455c4.389984 0.323365 8.849552 0.487094 13.256932 0.487093 68.686359 0 130.741693-38.017872 161.949462-99.218745 33.244148-65.309448 24.155143-143.721309-23.161512-199.74937L243.63181 17.665335l48.478107 3.517103c29.582759 2.146896 58.0583 10.119475 84.634586 23.697725 52.919257 26.963095 92.187609 72.954569 110.549815 129.494283 18.36016 56.533574 13.616112 116.824729-13.359262 169.767522-18.97926 37.250392-47.882544 68.264756-83.587743 89.689718-34.71157 20.830421-74.419943 31.840172-114.829282 31.840172z m-104.032378-73.785493a181.122127 181.122127 0 0 0 21.720697 12.977569c25.867134 13.196557 53.54552 19.875676 82.312704 19.875677 68.723198 0 130.777509-38.003546 161.946392-99.178837 22.01234-43.203988 25.883507-92.405573 10.900258-138.542356-14.984273-46.137807-47.026036-83.668585-90.221838-105.676832a182.542476 182.542476 0 0 0-23.326264-9.953699c31.791054 62.529125 32.601512 137.326669-0.188289 201.74277-19.007913 37.275975-47.915289 68.296479-83.604116 89.721441a223.364207 223.364207 0 0 1-79.539544 29.034267z" p-id="27815" fill="{{color}}"></path></svg>
